<?xml version="1.0" encoding="utf-8"?>
<!-- Generator: Adobe Illustrator 27.5.0, SVG Export Plug-In . SVG Version: 6.00 Build 0)  -->
<svg version="1.1" xmlns="http://www.w3.org/2000/svg" xmlns:xlink="http://www.w3.org/1999/xlink" x="0px" y="0px"
	 viewBox="0 0 750 500" style="enable-background:new 0 0 750 500;" xml:space="preserve">
<g id="Background_Simple">
	<g>
		<path style="fill:#92E3A9;" d="M722.478,387.349c65.893-140.36-30.695-302.802-185.87-315.383
			c-17.126-1.389-35.25-1.942-54.325-1.403C324.7,75.011,274.408,122.83,235.291,130.615c-39.116,7.785-126.29-23.354-169.877,8.897
			c-43.587,32.25-96.648,179.882-0.826,285.667s290.39-3.97,378.608,6.672c88.218,10.642,150.848,53.518,215.669,25.716
			C683.174,447.141,705.91,422.64,722.478,387.349z"/>
		<path style="opacity:0.7;fill:#FFFFFF;" d="M722.478,387.349c65.893-140.36-30.695-302.802-185.87-315.383
			c-17.126-1.389-35.25-1.942-54.325-1.403C324.7,75.011,274.408,122.83,235.291,130.615c-39.116,7.785-126.29-23.354-169.877,8.897
			c-43.587,32.25-96.648,179.882-0.826,285.667s290.39-3.97,378.608,6.672c88.218,10.642,150.848,53.518,215.669,25.716
			C683.174,447.141,705.91,422.64,722.478,387.349z"/>
	</g>
</g>
<g id="Table">
	
		<line style="fill:none;stroke:#263238;stroke-linecap:round;stroke-linejoin:round;stroke-miterlimit:10;" x1="13.515" y1="437.954" x2="734.158" y2="437.954"/>
</g>
<g id="Burner">
	<g>
		
			<rect x="342.282" y="426.905" style="fill:#FFFFFF;stroke:#263238;stroke-linecap:round;stroke-linejoin:round;stroke-miterlimit:10;" width="17.849" height="4.606"/>
		
			<rect x="347.389" y="389.479" style="fill:#FFFFFF;stroke:#263238;stroke-linecap:round;stroke-linejoin:round;stroke-miterlimit:10;" width="7.635" height="37.426"/>
		
			<rect x="344.866" y="388.054" style="fill:#FFFFFF;stroke:#263238;stroke-linecap:round;stroke-linejoin:round;stroke-miterlimit:10;" width="12.681" height="12.412"/>
		<path style="fill:#FFFFFF;stroke:#263238;stroke-linecap:round;stroke-linejoin:round;stroke-miterlimit:10;" d="M373.056,431.241
			h-43.698c-2.763,0-5.003,2.24-5.003,5.004v1.71h53.705v-1.71C378.059,433.482,375.819,431.241,373.056,431.241z"/>
		<g>
			<path style="fill:#92E3A9;stroke:#263238;stroke-linecap:round;stroke-linejoin:round;stroke-miterlimit:10;" d="M354.755,380.64
				c0,4.066-1.589,7.362-3.548,7.362c-1.96,0-3.548-3.296-3.548-7.362s2.129-11.797,3.548-11.797
				C352.626,368.843,354.755,376.574,354.755,380.64z"/>
			<path style="fill:#FFFFFF;stroke:#263238;stroke-linecap:round;stroke-linejoin:round;stroke-miterlimit:10;" d="
				M353.691,383.708c0,2.372-1.112,4.295-2.484,4.295c-1.372,0-2.484-1.923-2.484-4.295c0-2.372,1.49-6.882,2.484-6.882
				C352.201,376.826,353.691,381.336,353.691,383.708z"/>
		</g>
		
			<rect x="354.988" y="409.291" style="fill:#263238;stroke:#263238;stroke-linecap:round;stroke-linejoin:round;stroke-miterlimit:10;" width="3.371" height="8.161"/>
	</g>
</g>
<g id="Microscope">
	<g>
		<g>
			<polygon style="fill:#FFFFFF;stroke:#263238;stroke-linecap:round;stroke-linejoin:round;stroke-miterlimit:10;" points="
				151.515,366.195 148.415,366.863 146.175,363.995 152.376,362.659 			"/>
			
				<rect x="144.487" y="348.327" transform="matrix(0.9776 -0.2106 0.2106 0.9776 -71.6266 39.0785)" style="fill:#FFFFFF;stroke:#263238;stroke-linecap:round;stroke-linejoin:round;stroke-miterlimit:10;" width="6.343" height="14.992"/>
		</g>
		<g>
			<polygon style="fill:#FFFFFF;stroke:#263238;stroke-linecap:round;stroke-linejoin:round;stroke-miterlimit:10;" points="
				140.7,366.306 137.865,364.884 137.918,361.245 143.587,364.09 			"/>
			
				<rect x="141.024" y="348.311" transform="matrix(0.8937 0.4486 -0.4486 0.8937 174.9277 -26.8762)" style="fill:#FFFFFF;stroke:#263238;stroke-linecap:round;stroke-linejoin:round;stroke-miterlimit:10;" width="6.343" height="14.992"/>
		</g>
		<g>
			<polygon style="fill:#FFFFFF;stroke:#263238;stroke-linecap:round;stroke-linejoin:round;stroke-miterlimit:10;" points="
				131.889,362.35 129.055,360.927 129.107,357.289 134.775,360.134 			"/>
			
				<rect x="132.213" y="344.355" transform="matrix(0.8937 0.4486 -0.4486 0.8937 172.2227 -23.3436)" style="fill:#FFFFFF;stroke:#263238;stroke-linecap:round;stroke-linejoin:round;stroke-miterlimit:10;" width="6.343" height="14.992"/>
		</g>
		
			<rect x="89.552" y="392.043" style="fill:#263238;stroke:#263238;stroke-linecap:round;stroke-linejoin:round;stroke-miterlimit:10;" width="47.268" height="11.51"/>
		<g>
			<path style="fill:#FFFFFF;stroke:#263238;stroke-linecap:round;stroke-linejoin:round;stroke-miterlimit:10;" d="M177.76,437.954
				h-76.895v-19.911h68.761c4.492,0,8.134,3.642,8.134,8.134V437.954z"/>
			
				<line style="fill:none;stroke:#263238;stroke-linecap:round;stroke-linejoin:round;stroke-miterlimit:10;" x1="177.152" y1="427.952" x2="120.583" y2="427.952"/>
		</g>
		
			<rect x="89.552" y="392.043" style="fill:#263238;stroke:#263238;stroke-linecap:round;stroke-linejoin:round;stroke-miterlimit:10;" width="30.867" height="45.911"/>
		<g>
			<polygon style="fill:#263238;stroke:#263238;stroke-linecap:round;stroke-linejoin:round;stroke-miterlimit:10;" points="
				223.691,301.556 163.712,325.41 161.216,319.104 221.195,295.251 			"/>
			
				<rect x="199.73" y="302.392" transform="matrix(0.9298 -0.368 0.368 0.9298 -98.7955 95.6596)" style="fill:#FFFFFF;stroke:#263238;stroke-linecap:round;stroke-linejoin:round;stroke-miterlimit:10;" width="3.332" height="8.907"/>
			
				<rect x="161.479" y="310.495" transform="matrix(0.9298 -0.3681 0.3681 0.9298 -104.3898 86.8576)" style="fill:#263238;stroke:#263238;stroke-linecap:round;stroke-linejoin:round;stroke-miterlimit:10;" width="28.057" height="13.198"/>
		</g>
		<path style="fill:#FFFFFF;stroke:#263238;stroke-linecap:round;stroke-linejoin:round;stroke-miterlimit:10;" d="M174.177,330.938
			l-8.611,12.629l-34.443,1.148l-41.618,72.617c0,0-12.916-19.805-12.916-29.276c0-0.095,0-0.189,0-0.283
			c0.023-7.525,2.362-14.854,6.602-21.071l37.312-54.708h43.628L174.177,330.938z"/>
		
			<line style="fill:none;stroke:#263238;stroke-linecap:round;stroke-linejoin:round;stroke-miterlimit:10;" x1="174.177" y1="330.938" x2="108.448" y2="330.938"/>
		
			<rect x="133.132" y="305.053" style="fill:#263238;stroke:#263238;stroke-linecap:round;stroke-linejoin:round;stroke-miterlimit:10;" width="21.527" height="6.889"/>
		<g>
			<path style="fill:#263238;stroke:#263238;stroke-linecap:round;stroke-linejoin:round;stroke-miterlimit:10;" d="M89.69,391.513
				c-0.954,0-1.921-0.249-2.8-0.774c-2.596-1.55-3.445-4.91-1.896-7.507l21.505-36.036c1.55-2.596,4.909-3.446,7.507-1.896
				c2.596,1.55,3.445,4.91,1.896,7.507l-21.505,36.036C93.372,390.561,91.555,391.513,89.69,391.513z"/>
		</g>
		<polygon style="fill:#263238;stroke:#263238;stroke-linecap:round;stroke-linejoin:round;stroke-miterlimit:10;" points="
			165.566,343.566 157.699,357.558 130.091,346.514 137.938,333.437 		"/>
		
			<rect x="125.509" y="377.848" style="fill:#263238;stroke:#263238;stroke-linecap:round;stroke-linejoin:round;stroke-miterlimit:10;" width="43.886" height="3.395"/>
		
			<rect x="125.509" y="381.385" style="fill:#FFFFFF;stroke:#263238;stroke-linecap:round;stroke-linejoin:round;stroke-miterlimit:10;" width="28.367" height="10.166"/>
		
			<ellipse transform="matrix(0.9862 -0.1653 0.1653 0.9862 -65.6067 24.1338)" style="fill:#FFFFFF;stroke:#263238;stroke-linecap:round;stroke-linejoin:round;stroke-miterlimit:10;" cx="112.221" cy="406.308" rx="10.166" ry="10.166"/>
		<path style="fill:#FFFFFF;stroke:#263238;stroke-linecap:round;stroke-linejoin:round;stroke-miterlimit:10;" d="M134.094,397.454
			c0-2.481-2.011-4.493-4.493-4.493c-2.481,0-4.492,2.011-4.492,4.493c0,2.481,2.011,4.492,4.492,4.492
			C132.082,401.946,134.094,399.935,134.094,397.454z"/>
	</g>
</g>
<g id="Beakers_2">
	<g>
		<path style="fill:none;stroke:#263238;stroke-width:4;stroke-miterlimit:10;" d="M573.403,194.506v-3.786
			c0-1.938,1.571-3.51,3.51-3.51h24.961"/>
		<g>
			<path style="fill:#FFFFFF;stroke:#263238;stroke-linecap:round;stroke-linejoin:round;stroke-miterlimit:10;" d="
				M548.257,251.647c0.535,0.856,1.648,1.424,2.768,1.862c5.887,2.306,11.508,5.113,17.218,7.675l-18.792,8.433
				c-0.927,0.416-1.435,1.147-1.446,1.9c-0.146,0.857,0.376,1.736,1.429,2.209l18.81,8.441l-18.792,8.433
				c-0.912,0.409-1.422,1.124-1.449,1.865c-0.126,0.845,0.392,1.708,1.431,2.174l20.901,9.379v29.564h6c0-18.224,0-19.629,0-21.035
				c0-2.707,0.943-5.431,0.259-8.128c-1.004-3.956-6.019-5.604-10.172-7.444c-3.169-1.405-6.339-2.81-9.508-4.215
				c-0.103-0.046-0.206-0.091-0.309-0.137c0,0,18.238-8.184,18.266-8.196c1.401-0.629,2.648-1.113,2.367-2.602
				c-0.338-1.79-3.75-2.525-5.518-3.331c-2.078-0.947-4.174-1.873-6.26-2.809c-2.052-0.921-4.103-1.841-6.155-2.762
				c-0.239-0.107-2.549-1.349-2.778-1.247c2.5-1.122,5.001-2.244,7.501-3.366c1.959-0.879,3.918-1.759,5.878-2.638
				c1.3-0.583,2.536-1.247,3.87-1.789c1.125-0.457,2.728-1.07,3.31-2.013c0.772-1.251-0.796-2.238-2.057-2.847
				c-1.715-0.828-3.518-1.608-5.271-2.394c-1.989-0.893-3.979-1.785-5.968-2.678c-1.758-0.789-3.516-1.578-5.274-2.366
				c-0.188-0.084-2.026-1.072-2.208-0.991c6.135-2.753,12.275-5.508,18.419-8.239c0.054-0.024,0.107-0.048,0.16-0.072
				c1.507-0.69,2.759-1.562,2.223-2.984c-0.634-1.685-3.48-2.111-5.256-2.908c-1.918-0.861-3.836-1.721-5.754-2.582
				c-3.056-1.372-6.113-2.743-9.169-4.115c-0.037-0.017-0.075-0.034-0.112-0.051c2.935-1.317,5.869-2.634,8.805-3.951
				c2.312-1.037,4.791-1.666,7.104-2.71c2.609-1.177,4.236-1.962,4.236-4.732c0,0,0-10.42,0-10.42h-6v10.233
				c0,0.464-5.191,2.329-5.741,2.576c-4.695,2.107-9.429,4.153-14.184,6.186c-0.791,0.338-1.598,0.686-2.202,1.196
				c-1.374,1.161-0.898,2.723,0.635,3.635c1.388,0.826,3.097,1.313,4.608,1.991l6.197,2.781c1.867,0.838,3.735,1.676,5.602,2.514
				c0.202,0.091,2.171,1.149,2.366,1.061c-6.022,2.702-12.088,5.356-18.07,8.109C548.497,248.885,547.321,250.148,548.257,251.647z"
				/>
			<line style="fill:none;stroke:#263238;stroke-miterlimit:10;" x1="556.817" y1="229.644" x2="552.786" y2="231.027"/>
			<line style="fill:none;stroke:#263238;stroke-miterlimit:10;" x1="568.243" y1="240.004" x2="571.932" y2="238.069"/>
			<line style="fill:none;stroke:#263238;stroke-miterlimit:10;" x1="556.306" y1="250.594" x2="552.786" y2="252.153"/>
			<line style="fill:none;stroke:#263238;stroke-miterlimit:10;" x1="568.243" y1="261.184" x2="572.246" y2="259.43"/>
			<line style="fill:none;stroke:#263238;stroke-miterlimit:10;" x1="556.525" y1="271.675" x2="553.414" y2="273.279"/>
			<line style="fill:none;stroke:#263238;stroke-miterlimit:10;" x1="568.243" y1="282.166" x2="571.932" y2="280.321"/>
		</g>
		<path style="fill:#FFFFFF;stroke:#263238;stroke-linecap:round;stroke-linejoin:round;stroke-miterlimit:10;" d="M581.528,194.648
			h-15.142v2.831h2.208v8.332c0,1.132,1.227,2.049,2.739,2.049h5.247c1.513,0,2.739-0.917,2.739-2.049v-8.332h2.208V194.648z"/>
		<g>
			<rect x="606.523" y="149.199" style="fill:#263238;stroke:#263238;stroke-miterlimit:10;" width="11.141" height="5.196"/>
		</g>
		<rect x="597.174" y="181.706" style="fill:#FFFFFF;stroke:#263238;stroke-miterlimit:10;" width="7.312" height="12.623"/>
		<path style="fill:#FFFFFF;stroke:#263238;stroke-linecap:round;stroke-linejoin:round;stroke-miterlimit:10;" d="M640.692,232.57
			h-20.279v-63.687c0-3.171-1.775-5.926-4.384-7.33v-7.283h-7.872v7.283c-2.609,1.404-4.384,4.159-4.384,7.33v78.609
			c0,4.595,3.725,8.32,8.32,8.32s8.32-3.725,8.32-8.32v-10.024h22.363C641.941,235.913,641.238,234.277,640.692,232.57z"/>
		<g>
			<path style="fill:#FFFFFF;stroke:#263238;stroke-miterlimit:10;" d="M614.771,220.37c-0.11-0.81-1.219-1.142-1.793-1.507
				c-0.675-0.428-1.356-0.847-2.034-1.271c-0.968-0.604-1.935-1.209-2.903-1.813c0,0,0,0,0,0c0.813-0.508,1.625-1.015,2.438-1.522
				c0.637-0.398,1.273-0.795,1.91-1.193c0.422-0.264,0.824-0.564,1.258-0.809c0.366-0.207,0.886-0.484,1.076-0.91
				c0.251-0.566-0.259-1.012-0.669-1.288c-0.557-0.375-1.143-0.727-1.713-1.083c-0.647-0.404-1.293-0.807-1.939-1.211
				c-0.571-0.357-1.143-0.714-1.714-1.07c-0.061-0.038-0.658-0.485-0.718-0.448c1.994-1.245,3.989-2.491,5.986-3.726
				c0.017-0.011,0.035-0.022,0.052-0.033c0.49-0.312,0.897-0.706,0.722-1.35c-0.206-0.762-1.131-0.955-1.708-1.315
				c-0.623-0.389-1.247-0.779-1.87-1.168c-1.005-0.628-2.011-1.256-3.016-1.884l0,0c0.954-0.596,1.907-1.191,2.861-1.787
				c0.751-0.469,1.557-0.754,2.309-1.226c0.848-0.533,1.377-0.887,1.377-2.14c0,0,0-1.16,0-2.329v-0.554
				c0-1.011-0.819-1.83-1.83-1.83h-0.12h-8.971v2.384h7.141c1.011,0,1.83,0.819,1.83,1.83v0.414c0,0.21-1.687,1.053-1.866,1.165
				c-1.526,0.953-3.064,1.878-4.61,2.798c-0.257,0.153-0.519,0.31-0.715,0.541c-0.446,0.525-0.292,1.232,0.207,1.644
				c0.451,0.374,1.006,0.594,1.498,0.9l2.014,1.258c0.607,0.379,1.214,0.758,1.821,1.137c0.066,0.041,0.705,0.52,0.769,0.48
				c-1.957,1.222-3.928,2.423-5.872,3.667c-0.545,0.349-0.927,0.92-0.623,1.598c0.174,0.387,0.535,0.644,0.899,0.842
				c1.913,1.043,3.74,2.312,5.595,3.471l-6.107,3.814c-0.301,0.188-0.466,0.519-0.47,0.859c-0.048,0.387,0.122,0.785,0.464,0.999
				l6.113,3.818l-6.107,3.814c-0.296,0.185-0.462,0.508-0.471,0.843c-0.041,0.382,0.128,0.772,0.465,0.983l6.792,4.242v13.371h1.95
				c0-8.242,0-8.878,0-9.513c0-1.225,0.306-2.456,0.084-3.676c-0.326-1.789-1.956-2.534-3.305-3.367
				c-1.03-0.635-2.06-1.271-3.09-1.906c-0.034-0.021-0.067-0.041-0.1-0.062c0,0,5.927-3.702,5.936-3.707
				C614.456,221.262,614.862,221.043,614.771,220.37z"/>
		</g>
		
			<rect x="664.292" y="171.562" style="fill:#263238;stroke:#263238;stroke-linecap:round;stroke-linejoin:round;stroke-miterlimit:10;" width="8.393" height="19.471"/>
		<path style="fill:#FFFFFF;stroke:#263238;stroke-linecap:round;stroke-linejoin:round;stroke-miterlimit:10;" d="M674.95,195.142
			v-14.945h-12.832v14.945c-12.6,2.849-22.203,13.967-22.784,27.196c-0.624,14.228,8.928,26.331,21.986,29.647v12.356
			c0,1.682,1.364,3.045,3.045,3.045h8.336c1.682,0,3.045-1.363,3.045-3.045v-12.356c12.654-3.212,22.015-14.677,22.015-28.33
			C697.763,209.717,688.005,198.068,674.95,195.142z"/>
		
			<rect x="659.815" y="176.09" style="fill:#92E3A9;stroke:#263238;stroke-linecap:round;stroke-linejoin:round;stroke-miterlimit:10;" width="17.41" height="6.57"/>
		<g>
			<path style="fill:#FFFFFF;stroke:#263238;stroke-linecap:round;stroke-linejoin:round;stroke-miterlimit:10;" d="
				M597.489,378.509l-14.318-55.608V307.7h-20.268v15.201l-14.317,55.608c-0.961,3.732,1.857,7.368,5.711,7.368h37.481
				C595.632,385.877,598.45,382.241,597.489,378.509z"/>
			<path style="fill:#92E3A9;stroke:#263238;stroke-linecap:round;stroke-linejoin:round;stroke-miterlimit:10;" d="
				M585.769,350.408h-25.463l-7.514,29.184c-0.165,0.642,0.103,1.115,0.277,1.34c0.175,0.225,0.565,0.602,1.228,0.602h37.481
				c0.662,0,1.053-0.377,1.228-0.602c0.175-0.225,0.443-0.698,0.277-1.34L585.769,350.408z"/>
		</g>
		<g>
			
				<rect x="536.699" y="385.966" style="fill:#263238;stroke:#263238;stroke-linecap:round;stroke-linejoin:round;stroke-miterlimit:10;" width="73.764" height="7.438"/>
			
				<line style="fill:none;stroke:#263238;stroke-width:3;stroke-linecap:round;stroke-linejoin:round;stroke-miterlimit:10;" x1="545.377" y1="392.785" x2="537.319" y2="436.795"/>
			
				<line style="fill:none;stroke:#263238;stroke-width:3;stroke-linecap:round;stroke-linejoin:round;stroke-miterlimit:10;" x1="601.785" y1="392.785" x2="609.843" y2="436.795"/>
		</g>
		<path style="fill:#FFFFFF;stroke:#263238;stroke-linecap:round;stroke-linejoin:round;stroke-miterlimit:10;" d="M682.701,275.668
			v-11.805c0-3.1-2.513-5.614-5.614-5.614h-16.415c-3.101,0-5.614,2.514-5.614,5.614V275.3c-9.77,5.088-16.309,15.525-15.714,27.433
			c0.734,14.697,12.614,26.746,27.3,27.671c16.999,1.07,31.12-12.401,31.12-29.169C697.763,290.233,691.682,280.655,682.701,275.668
			z"/>
		
			<ellipse transform="matrix(0.4393 -0.8984 0.8984 0.4393 28.934 816.3831)" style="fill:#FFFFFF;stroke:#263238;stroke-linecap:round;stroke-linejoin:round;stroke-miterlimit:10;" cx="668.444" cy="385.014" rx="52.067" ry="52.067"/>
		
			<rect x="656.202" y="328.323" style="fill:#92E3A9;stroke:#263238;stroke-linecap:round;stroke-linejoin:round;stroke-miterlimit:10;" width="23.667" height="5.169"/>
		<path style="fill:#92E3A9;stroke:#263238;stroke-linecap:round;stroke-linejoin:round;stroke-miterlimit:10;" d="M620.374,377.977
			c-0.211,1.826-0.325,3.682-0.325,5.566c0,26.787,21.715,48.502,48.503,48.502c26.787,0,48.503-21.715,48.503-48.502
			c0-1.883-0.114-3.739-0.324-5.566H620.374z"/>
		<g>
			<path style="fill:none;stroke:#263238;stroke-miterlimit:10;" d="M661.925,401.523c0,2-1.622,3.622-3.622,3.622
				c-2,0-3.622-1.622-3.622-3.622s1.622-3.622,3.622-3.622C660.304,397.901,661.925,399.523,661.925,401.523z"/>
			<path style="fill:none;stroke:#263238;stroke-miterlimit:10;" d="M647.436,403.787c0,1.751-1.419,3.17-3.169,3.17
				c-1.751,0-3.17-1.419-3.17-3.17c0-1.75,1.419-3.169,3.17-3.169C646.017,400.617,647.436,402.036,647.436,403.787z"/>
			<path style="fill:none;stroke:#263238;stroke-miterlimit:10;" d="M667.812,389.072c0,1.625-1.318,2.943-2.943,2.943
				s-2.943-1.318-2.943-2.943c0-1.625,1.318-2.943,2.943-2.943S667.812,387.446,667.812,389.072z"/>
			<circle style="fill:none;stroke:#263238;stroke-miterlimit:10;" cx="672.113" cy="406.73" r="2.49"/>
			<path style="fill:none;stroke:#263238;stroke-miterlimit:10;" d="M654.228,417.144c0,1.125-0.912,2.038-2.038,2.038
				s-2.038-0.912-2.038-2.038s0.912-2.038,2.038-2.038S654.228,416.019,654.228,417.144z"/>
		</g>
	</g>
</g>
<g id="Beakers_1">
	<g>
		<g>
			
				<rect x="217.784" y="420.58" style="fill:#FFFFFF;stroke:#263238;stroke-linecap:round;stroke-linejoin:round;stroke-miterlimit:10;" width="6.42" height="4.187"/>
			<polygon style="fill:#FFFFFF;stroke:#263238;stroke-linecap:round;stroke-linejoin:round;stroke-miterlimit:10;" points="
				297.05,437.954 189.432,437.954 200.194,421.961 286.288,421.961 			"/>
			
				<rect x="203.257" y="411.389" style="fill:#FFFFFF;stroke:#263238;stroke-linecap:round;stroke-linejoin:round;stroke-miterlimit:10;" width="80.239" height="10.301"/>
			
				<rect x="208.915" y="418.094" style="fill:#263238;stroke:#263238;stroke-linecap:round;stroke-linejoin:round;stroke-miterlimit:10;" width="6.099" height="3.703"/>
			
				<rect x="271.433" y="418.094" style="fill:#263238;stroke:#263238;stroke-linecap:round;stroke-linejoin:round;stroke-miterlimit:10;" width="6.099" height="3.703"/>
			
				<rect x="243.464" y="402.837" style="fill:#FFFFFF;stroke:#263238;stroke-linecap:round;stroke-linejoin:round;stroke-miterlimit:10;" width="6.235" height="4.066"/>
			<g>
				
					<rect x="240.644" y="352.102" style="fill:#263238;stroke:#263238;stroke-linecap:round;stroke-linejoin:round;stroke-miterlimit:10;" width="7.885" height="8.378"/>
				<path style="fill:#FFFFFF;stroke:#263238;stroke-linecap:round;stroke-linejoin:round;stroke-miterlimit:10;" d="
					M266.074,406.079l-17.48-32.509v-15.312h-8.132v15.312l-17.48,32.509c-1.028,2.382,0.719,5.039,3.314,5.039h36.464
					C265.355,411.118,267.102,408.462,266.074,406.079z"/>
				<path style="fill:#92E3A9;stroke:#263238;stroke-linecap:round;stroke-linejoin:round;stroke-miterlimit:10;" d="
					M256.877,394.853h-24.698l-5.23,9.728c-0.839,1.944,0.587,4.111,2.704,4.111h29.751c2.117,0,3.542-2.167,2.704-4.111
					L256.877,394.853z"/>
			</g>
		</g>
		<g>
			
				<rect x="341.04" y="269.309" style="fill:#263238;stroke:#263238;stroke-linecap:round;stroke-linejoin:round;stroke-miterlimit:10;" width="20.554" height="6.84"/>
			<path style="fill:#FFFFFF;stroke:#263238;stroke-linecap:round;stroke-linejoin:round;stroke-miterlimit:10;" d="
				M361.406,292.885v-16.736H341.04v16.736c-9.405,3.982-16.006,13.313-16.006,24.19c0,11.435,16.296,28.055,23.179,34.564
				c1.694,1.602,4.328,1.602,6.022,0c6.883-6.51,23.179-23.129,23.179-34.564C377.413,306.199,370.812,296.868,361.406,292.885z"/>
			<path style="fill:#92E3A9;stroke:#263238;stroke-linecap:round;stroke-linejoin:round;stroke-miterlimit:10;" d="M329.044,320.62
				c2.777,9.519,14.311,21.236,19.559,26.2c1.474,1.394,3.767,1.394,5.24,0c5.248-4.963,16.783-16.681,19.559-26.2H329.044z"/>
			
				<rect x="320.101" y="326.888" style="fill:#FFFFFF;stroke:#263238;stroke-linecap:round;stroke-linejoin:round;stroke-miterlimit:10;" width="72.534" height="4.288"/>
			
				<rect x="315.916" y="330.857" transform="matrix(-1.836970e-16 1 -1 -1.836970e-16 747.0367 -81.0355)" style="fill:#FFFFFF;stroke:#263238;stroke-linecap:round;stroke-linejoin:round;stroke-miterlimit:10;" width="196.241" height="4.288"/>
			
				<line style="fill:none;stroke:#263238;stroke-width:2;stroke-linecap:round;stroke-linejoin:round;stroke-miterlimit:10;" x1="392.635" y1="329.031" x2="432.438" y2="329.031"/>
			<path style="fill:#263238;stroke:#263238;stroke-linecap:round;stroke-linejoin:round;stroke-miterlimit:10;" d="
				M420.289,329.389c0-3.552-2.88-6.431-6.432-6.431c-3.552,0-6.432,2.879-6.432,6.431c0,3.552,2.879,6.432,6.432,6.432
				C417.409,335.82,420.289,332.941,420.289,329.389z"/>
			
				<rect x="383.121" y="430.22" style="fill:#263238;stroke:#263238;stroke-linecap:round;stroke-linejoin:round;stroke-miterlimit:10;" width="60.907" height="7.734"/>
		</g>
		<path style="fill:none;stroke:#263238;stroke-width:4;stroke-linecap:round;stroke-linejoin:round;stroke-miterlimit:10;" d="
			M244.586,356.291v-1.57c0-6.89,5.586-12.476,12.476-12.476h34.508c6.168,0,11.169-5.001,11.169-11.169v-66.262
			c0-5.411,4.386-9.797,9.797-9.797h30.473c4.977,0,9.011,4.034,9.011,9.011v8.701"/>
		<g>
			<path style="fill:#FFFFFF;stroke:#263238;stroke-miterlimit:10;" d="M315.077,407.793v-51.135h-10.796v51.135
				c-5.935,2.197-10.173,7.891-10.173,14.59c0,8.6,6.971,15.571,15.571,15.571c8.6,0,15.571-6.971,15.571-15.571
				C325.25,415.685,321.012,409.991,315.077,407.793z"/>
			<g>
				<path style="fill:#92E3A9;stroke:#263238;stroke-linecap:round;stroke-linejoin:round;stroke-miterlimit:10;" d="
					M296.345,418.439c-0.37,1.251-0.576,2.573-0.576,3.945c0,7.682,6.228,13.91,13.91,13.91c7.682,0,13.91-6.228,13.91-13.91
					c0-1.371-0.206-2.693-0.576-3.945H296.345z"/>
			</g>
		</g>
	</g>
</g>
<g id="Tubes_2">
	<g>
		<g>
			<g>
				<path style="fill:#FFFFFF;stroke:#263238;stroke-linecap:round;stroke-linejoin:round;stroke-miterlimit:10;" d="
					M471.755,435.72h-0.619c-2.227,0-4.032-1.805-4.032-4.032v-50.646h8.684v50.646C475.788,433.914,473.982,435.72,471.755,435.72z
					"/>
				<path style="fill:#92E3A9;stroke:#263238;stroke-linecap:round;stroke-linejoin:round;stroke-miterlimit:10;" d="
					M467.104,397.52v33.858c0,2.398,1.944,4.342,4.342,4.342c2.398,0,4.342-1.944,4.342-4.342V397.52H467.104z"/>
			</g>
			
				<rect x="465.572" y="379.765" style="fill:#263238;stroke:#263238;stroke-linecap:round;stroke-linejoin:round;stroke-miterlimit:10;" width="11.748" height="8.173"/>
		</g>
		<g>
			<g>
				<path style="fill:#FFFFFF;stroke:#263238;stroke-linecap:round;stroke-linejoin:round;stroke-miterlimit:10;" d="
					M488.334,435.72L488.334,435.72c-2.398,0-4.342-1.944-4.342-4.342v-50.336h8.683v50.336
					C492.675,433.776,490.732,435.72,488.334,435.72z"/>
				<path style="fill:#92E3A9;stroke:#263238;stroke-linecap:round;stroke-linejoin:round;stroke-miterlimit:10;" d="
					M483.992,397.52v33.858c0,2.398,1.944,4.342,4.342,4.342c2.398,0,4.342-1.944,4.342-4.342V397.52H483.992z"/>
			</g>
			
				<rect x="482.46" y="379.765" style="fill:#FFFFFF;stroke:#263238;stroke-linecap:round;stroke-linejoin:round;stroke-miterlimit:10;" width="11.748" height="8.173"/>
		</g>
		<g>
			<g>
				<path style="fill:#FFFFFF;stroke:#263238;stroke-linecap:round;stroke-linejoin:round;stroke-miterlimit:10;" d="
					M505.222,435.72L505.222,435.72c-2.398,0-4.342-1.944-4.342-4.342v-50.336h8.683v50.336
					C509.563,433.776,507.619,435.72,505.222,435.72z"/>
				<path style="fill:#92E3A9;stroke:#263238;stroke-linecap:round;stroke-linejoin:round;stroke-miterlimit:10;" d="M500.88,397.52
					v33.858c0,2.398,1.944,4.342,4.342,4.342l0,0c2.398,0,4.342-1.944,4.342-4.342V397.52H500.88z"/>
			</g>
			
				<rect x="499.348" y="379.765" style="fill:#263238;stroke:#263238;stroke-linecap:round;stroke-linejoin:round;stroke-miterlimit:10;" width="11.748" height="8.173"/>
		</g>
		<g>
			<g>
				<path style="fill:#FFFFFF;stroke:#263238;stroke-linecap:round;stroke-linejoin:round;stroke-miterlimit:10;" d="M522.11,435.72
					L522.11,435.72c-2.398,0-4.342-1.944-4.342-4.342v-50.336h8.683v50.336C526.451,433.776,524.508,435.72,522.11,435.72z"/>
				<path style="fill:#92E3A9;stroke:#263238;stroke-linecap:round;stroke-linejoin:round;stroke-miterlimit:10;" d="
					M517.768,397.52v33.858c0,2.398,1.944,4.342,4.342,4.342c2.398,0,4.342-1.944,4.342-4.342V397.52H517.768z"/>
			</g>
			
				<rect x="516.235" y="379.765" style="fill:#FFFFFF;stroke:#263238;stroke-linecap:round;stroke-linejoin:round;stroke-miterlimit:10;" width="11.748" height="8.173"/>
		</g>
		<polygon style="fill:#FFFFFF;stroke:#263238;stroke-linecap:round;stroke-linejoin:round;stroke-miterlimit:10;" points="
			535.326,392.343 459.698,392.343 459.698,394.913 535.326,394.913 535.326,431.713 456.026,431.713 456.026,437.954 
			540.466,437.954 540.466,436.486 540.466,431.713 540.466,394.913 540.466,392.343 		"/>
	</g>
</g>
<g id="Tube_1">
	<g>
		<polygon style="fill:#FFFFFF;stroke:#263238;stroke-miterlimit:10;" points="58.796,234.684 45.562,234.684 32.329,234.684 
			34.343,240.745 34.343,437.374 57.072,437.374 57.072,240.656 57.154,240.63 		"/>
		<rect x="25.239" y="432.661" style="fill:#FFFFFF;stroke:#263238;stroke-miterlimit:10;" width="40.936" height="5.293"/>
		
			<line style="fill:none;stroke:#263238;stroke-linecap:round;stroke-linejoin:round;stroke-miterlimit:10;" x1="37.622" y1="250.212" x2="42.563" y2="250.212"/>
		
			<line style="fill:none;stroke:#263238;stroke-linecap:round;stroke-linejoin:round;stroke-miterlimit:10;" x1="37.622" y1="257.975" x2="42.563" y2="257.975"/>
		
			<line style="fill:none;stroke:#263238;stroke-linecap:round;stroke-linejoin:round;stroke-miterlimit:10;" x1="37.622" y1="265.739" x2="42.563" y2="265.739"/>
		
			<line style="fill:none;stroke:#263238;stroke-linecap:round;stroke-linejoin:round;stroke-miterlimit:10;" x1="37.622" y1="273.503" x2="42.563" y2="273.503"/>
		
			<line style="fill:none;stroke:#263238;stroke-linecap:round;stroke-linejoin:round;stroke-miterlimit:10;" x1="37.622" y1="281.267" x2="42.563" y2="281.267"/>
		
			<line style="fill:none;stroke:#263238;stroke-linecap:round;stroke-linejoin:round;stroke-miterlimit:10;" x1="37.622" y1="289.031" x2="42.563" y2="289.031"/>
		
			<line style="fill:none;stroke:#263238;stroke-linecap:round;stroke-linejoin:round;stroke-miterlimit:10;" x1="37.622" y1="296.794" x2="42.563" y2="296.794"/>
		
			<line style="fill:none;stroke:#263238;stroke-linecap:round;stroke-linejoin:round;stroke-miterlimit:10;" x1="37.622" y1="304.558" x2="42.563" y2="304.558"/>
		
			<line style="fill:none;stroke:#263238;stroke-linecap:round;stroke-linejoin:round;stroke-miterlimit:10;" x1="37.622" y1="312.322" x2="42.563" y2="312.322"/>
		
			<line style="fill:none;stroke:#263238;stroke-linecap:round;stroke-linejoin:round;stroke-miterlimit:10;" x1="37.622" y1="320.086" x2="42.563" y2="320.086"/>
		
			<line style="fill:none;stroke:#263238;stroke-linecap:round;stroke-linejoin:round;stroke-miterlimit:10;" x1="37.622" y1="327.85" x2="42.563" y2="327.85"/>
		
			<line style="fill:none;stroke:#263238;stroke-linecap:round;stroke-linejoin:round;stroke-miterlimit:10;" x1="37.622" y1="335.613" x2="42.563" y2="335.613"/>
		
			<line style="fill:none;stroke:#263238;stroke-linecap:round;stroke-linejoin:round;stroke-miterlimit:10;" x1="37.622" y1="343.377" x2="42.563" y2="343.377"/>
		
			<line style="fill:none;stroke:#263238;stroke-linecap:round;stroke-linejoin:round;stroke-miterlimit:10;" x1="37.622" y1="351.141" x2="42.563" y2="351.141"/>
		
			<line style="fill:none;stroke:#263238;stroke-linecap:round;stroke-linejoin:round;stroke-miterlimit:10;" x1="37.622" y1="358.905" x2="42.563" y2="358.905"/>
		
			<line style="fill:none;stroke:#263238;stroke-linecap:round;stroke-linejoin:round;stroke-miterlimit:10;" x1="37.622" y1="366.669" x2="42.563" y2="366.669"/>
		
			<line style="fill:none;stroke:#263238;stroke-linecap:round;stroke-linejoin:round;stroke-miterlimit:10;" x1="37.622" y1="374.432" x2="42.563" y2="374.432"/>
		
			<line style="fill:none;stroke:#263238;stroke-linecap:round;stroke-linejoin:round;stroke-miterlimit:10;" x1="37.622" y1="382.196" x2="42.563" y2="382.196"/>
		
			<line style="fill:none;stroke:#263238;stroke-linecap:round;stroke-linejoin:round;stroke-miterlimit:10;" x1="37.622" y1="389.96" x2="42.563" y2="389.96"/>
		
			<line style="fill:none;stroke:#263238;stroke-linecap:round;stroke-linejoin:round;stroke-miterlimit:10;" x1="37.622" y1="397.724" x2="42.563" y2="397.724"/>
		
			<line style="fill:none;stroke:#263238;stroke-linecap:round;stroke-linejoin:round;stroke-miterlimit:10;" x1="37.622" y1="405.488" x2="42.563" y2="405.488"/>
		
			<line style="fill:none;stroke:#263238;stroke-linecap:round;stroke-linejoin:round;stroke-miterlimit:10;" x1="37.622" y1="413.251" x2="42.563" y2="413.251"/>
		
			<line style="fill:none;stroke:#263238;stroke-linecap:round;stroke-linejoin:round;stroke-miterlimit:10;" x1="37.622" y1="421.015" x2="42.563" y2="421.015"/>
		
			<line style="fill:none;stroke:#263238;stroke-linecap:round;stroke-linejoin:round;stroke-miterlimit:10;" x1="37.622" y1="428.779" x2="42.563" y2="428.779"/>
	</g>
</g>
<g id="Graphics">
	<g>
		<polyline style="fill:none;stroke:#263238;stroke-miterlimit:10;" points="70.387,168.601 77.333,180.631 101.64,180.631 
			113.794,159.581 101.64,138.53 77.333,138.53 65.179,159.581 68.708,165.693 		"/>
		<polyline style="fill:none;stroke:#263238;stroke-miterlimit:10;" points="129.394,201.89 138.071,201.89 150.225,180.839 
			138.071,159.788 113.764,159.788 101.61,180.839 113.764,201.89 126.216,201.89 		"/>
		<polygon style="fill:none;stroke:#263238;stroke-miterlimit:10;" points="101.46,180.636 77.153,180.636 64.999,201.687 
			77.153,222.738 101.46,222.738 113.614,201.687 		"/>
		<line style="fill:none;stroke:#263238;stroke-miterlimit:10;" x1="138.071" y1="159.788" x2="144.3" y2="146.379"/>
		<line style="fill:none;stroke:#263238;stroke-miterlimit:10;" x1="138.071" y1="201.89" x2="148.399" y2="221.654"/>
		<line style="fill:none;stroke:#263238;stroke-miterlimit:10;" x1="65.179" y1="159.581" x2="44.431" y2="159.581"/>
		<line style="fill:none;stroke:#263238;stroke-miterlimit:10;" x1="114.148" y1="120.807" x2="116.351" y2="117.685"/>
		<line style="fill:none;stroke:#263238;stroke-miterlimit:10;" x1="101.64" y1="138.53" x2="112.247" y2="123.501"/>
		<line style="fill:none;stroke:#263238;stroke-miterlimit:10;" x1="77.153" y1="222.738" x2="65.299" y2="236.187"/>
	</g>
	<g>
		<path style="fill:#263238;" d="M299.56,113.535c-4.332,0-7.844,3.512-7.844,7.844c0,4.332,3.512,7.844,7.844,7.844
			s7.844-3.512,7.844-7.844C307.403,117.047,303.892,113.535,299.56,113.535z"/>
		<path style="fill:#263238;" d="M343.639,132.872c0-2.233-1.81-4.043-4.043-4.043c-0.457,0-0.889,0.093-1.299,0.232
			c-1.13-2.525-2.473-5.096-4.007-7.682c9.35-15.773,11.41-30.984,3.832-38.562c-4.681-4.68-12.273-5.686-21.111-3.57
			c-4.752-7.745-10.832-12.403-17.451-12.403c-2.973,0-5.835,0.951-8.519,2.688c-0.74-0.825-1.804-1.355-3-1.355
			c-2.233,0-4.043,1.81-4.043,4.043c0,1.076,0.427,2.048,1.113,2.773c-1.049,1.288-2.053,2.707-3.003,4.254
			c-8.838-2.117-16.43-1.111-21.11,3.569c-7.573,7.573-5.52,22.771,3.815,38.533c-2.671,4.489-4.793,8.995-6.254,13.38
			c-1.296,3.887-2.014,7.51-2.187,10.812c-2.075,0.172-3.711,1.891-3.711,4.01c0,2.233,1.81,4.044,4.044,4.044
			c0.183,0,0.357-0.03,0.534-0.054c0.77,2.5,2.018,4.658,3.759,6.4c3.107,3.107,7.517,4.677,12.885,4.677
			c2.545,0,5.309-0.362,8.249-1.071c4.749,7.723,10.82,12.366,17.428,12.366c6.622,0,12.706-4.662,17.459-12.415
			c2.904,0.695,5.681,1.069,8.257,1.069c5.256,0,9.707-1.487,12.846-4.627c5.066-5.066,5.825-13.546,2.98-23.322
			C342.587,136.021,343.639,134.572,343.639,132.872z M325.211,79.138c5.004,0,9.228,1.409,12.204,4.385
			c7.201,7.201,5.22,21.707-3.693,36.9c-2.079-3.405-4.496-6.829-7.226-10.202c-1.257-11.93-4.489-22.431-8.982-30.118
			C320.224,79.472,322.809,79.138,325.211,79.138z M318.31,140.13c-5.926,5.926-12.315,10.961-18.746,14.846
			c-6.314-3.818-12.723-8.814-18.755-14.846c-2.605-2.605-5.019-5.281-7.228-7.99c-0.353-3.477-0.538-7.076-0.538-10.761
			c0-3.686,0.186-7.285,0.539-10.763c2.227-2.727,4.642-5.402,7.228-7.988c6.031-6.031,12.438-11.013,18.751-14.831
			c6.314,3.817,12.72,8.8,18.751,14.831c2.605,2.606,5.019,5.282,7.228,7.99c0.353,3.477,0.538,7.076,0.538,10.761
			c0,3.685-0.186,7.284-0.538,10.761C323.329,134.848,320.916,137.524,318.31,140.13z M325.333,133.938
			c-1.353,11.315-4.487,21.239-8.772,28.485c-5.035-1.293-10.481-3.619-16.02-6.866c6.346-3.889,12.637-8.88,18.477-14.72
			C321.271,138.583,323.372,136.274,325.333,133.938z M298.624,155.538c-4.276,2.507-8.561,4.503-12.731,5.893
			c-1.14,0.38-2.25,0.7-3.341,0.98c-4.282-7.245-7.413-17.165-8.766-28.473c1.961,2.337,4.062,4.645,6.316,6.899
			C286.05,146.785,292.37,151.721,298.624,155.538z M272.455,130.723c-2.44-3.102-4.61-6.236-6.492-9.349
			c1.899-3.144,4.073-6.276,6.493-9.35c-0.267,3.042-0.413,6.164-0.413,9.354C272.042,124.566,272.189,127.685,272.455,130.723z
			 M273.788,108.809c1.353-11.303,4.483-21.218,8.763-28.461c5.046,1.294,10.498,3.613,16.05,6.869
			c-6.247,3.815-12.559,8.762-18.499,14.703C277.865,104.158,275.761,106.463,273.788,108.809z M300.518,87.218
			c5.553-3.257,11.005-5.576,16.051-6.87c4.281,7.245,7.412,17.164,8.764,28.472c-1.961-2.337-4.062-4.646-6.315-6.899
			C313.077,95.981,306.764,91.033,300.518,87.218z M326.664,112.035c2.438,3.101,4.608,6.233,6.49,9.344
			c-1.881,3.111-4.051,6.244-6.49,9.344c0.266-3.039,0.413-6.158,0.413-9.345C327.077,118.192,326.93,115.073,326.664,112.035z
			 M285.826,75.598c0.637,0.419,1.396,0.666,2.215,0.666c2.233,0,4.043-1.81,4.043-4.044c0-0.691-0.19-1.332-0.496-1.901
			c2.517-1.605,5.194-2.475,7.97-2.475c6.229,0,11.958,4.369,16.488,11.654c-5.204,1.365-10.808,3.784-16.489,7.151
			c-5.68-3.367-11.284-5.786-16.488-7.151C283.947,78.089,284.865,76.778,285.826,75.598z M261.705,83.524
			c2.977-2.977,7.199-4.385,12.204-4.385c2.402,0,4.987,0.334,7.696,0.965c-4.491,7.684-7.723,18.182-8.981,30.107
			c-2.71,3.338-5.139,6.754-7.243,10.187C256.482,105.214,254.507,90.721,261.705,83.524z M261.705,159.234
			c-1.612-1.612-2.774-3.612-3.499-5.934c1.488-0.597,2.542-2.047,2.542-3.748c0-2.006-1.464-3.658-3.38-3.976
			c0.17-3.203,0.874-6.733,2.139-10.529c1.389-4.167,3.382-8.447,5.885-12.718c2.08,3.407,4.498,6.834,7.231,10.209
			c1.256,11.926,4.487,22.424,8.978,30.11C272.952,164.672,265.98,163.509,261.705,159.234z M299.56,174.914
			c-6.215,0-11.933-4.35-16.459-11.607c1.017-0.269,2.052-0.575,3.108-0.927c4.387-1.462,8.895-3.585,13.387-6.258
			c5.671,3.358,11.262,5.769,16.458,7.13C311.522,170.542,305.791,174.914,299.56,174.914z M337.415,159.234
			c-4.404,4.404-11.545,5.366-19.9,3.419c4.492-7.686,7.724-18.187,8.981-30.116c2.73-3.373,5.147-6.797,7.226-10.202
			c1.411,2.405,2.648,4.792,3.703,7.136c-1.123,0.718-1.873,1.969-1.873,3.402c0,2.233,1.81,4.044,4.044,4.044
			c0.203,0,0.398-0.031,0.593-0.06C342.948,146.272,342.249,154.399,337.415,159.234z"/>
	</g>
	<path style="fill:none;stroke:#263238;stroke-miterlimit:10;" d="M401.647,168.301c6.106,3.553,13.685,4.635,22.185,3.107
		c6.299-1.132,11.206-3.33,12.763-4.081c0.018-0.008,0.075-0.036,0.151-0.073c0.043-0.021,0.076-0.037,0.112-0.055
		c0.036-0.018,0.069-0.034,0.112-0.056c0.076-0.038,0.132-0.067,0.15-0.076c1.541-0.784,6.263-3.355,10.981-7.679
		c6.366-5.835,10.099-12.52,10.973-19.529c6.106,3.553,13.684,4.634,22.184,3.107c7.506-1.35,13.055-4.22,13.287-4.34l-1.851-3.547
		c-0.069,0.036-2.414,1.23-6.015,2.382l-12.861-25.968c3.099-2.166,5.47-3.308,5.541-3.341l-1.699-3.622
		c-0.237,0.112-5.883,2.785-11.505,7.939c-6.367,5.835-10.099,12.519-10.973,19.528c-6.106-3.552-13.684-4.634-22.184-3.106
		c-6.323,1.136-11.243,3.346-12.78,4.089c-0.022,0.011-0.067,0.032-0.132,0.064c-0.044,0.021-0.078,0.038-0.114,0.056
		c-0.036,0.018-0.07,0.035-0.114,0.057c-0.065,0.033-0.109,0.055-0.131,0.066c-1.523,0.773-6.262,3.347-10.997,7.688
		c-6.367,5.835-10.099,12.519-10.974,19.529c-6.106-3.553-13.685-4.635-22.184-3.106c-7.507,1.349-13.054,4.22-13.287,4.34
		l1.853,3.546c0.062-0.033,1.997-1.022,5.042-2.069l12.991,26.23c-2.677,1.792-4.636,2.736-4.699,2.766l1.699,3.622
		c0.237-0.112,5.883-2.786,11.505-7.939C397.04,181.995,400.773,175.311,401.647,168.301z M415.208,140.786l12.656,25.553
		c-2.616,0.757-5.745,1.425-9.078,1.646l-10.389-20.976C410.593,144.491,413.021,142.41,415.208,140.786z M421.745,136.686
		c0.453-0.222,1.776-0.845,3.693-1.555l13.118,26.485c-1.821,1.155-3.166,1.844-3.545,2.031c-0.624,0.304-2.38,1.117-4.853,1.964
		l-12.984-26.215C419.441,137.876,421.202,136.958,421.745,136.686z M440.55,160.284l-12.844-25.933
		c2.843-0.902,6.451-1.769,10.337-2.027l10.384,20.966C445.867,156.226,442.992,158.569,440.55,160.284z M484.361,138.141
		c-2.312,0.619-4.966,1.142-7.773,1.358l-10.508-21.215c1.873-2.102,3.898-3.896,5.791-5.36L484.361,138.141z M464.419,120.29
		l9.566,19.314c-5.035,0.01-10.365-1.128-15.001-4.597C459.035,129.219,461.359,124.288,464.419,120.29z M455.268,136.848
		c-0.049,5.64-2.253,10.465-5.194,14.407l-9.414-19.006C445.578,132.299,450.752,133.47,455.268,136.848z M406.751,149.046
		l9.417,19.014c-4.914-0.051-10.087-1.224-14.609-4.609C401.608,157.811,403.811,152.986,406.751,149.046z M397.842,165.29
		c-0.049,5.605-2.231,10.402-5.146,14.33l-9.378-18.934C388.207,160.75,393.346,161.925,397.842,165.29z M371.327,162.466
		c2.679-0.789,5.917-1.49,9.37-1.712l10.357,20.911c-2.269,2.612-4.788,4.764-7.038,6.42L371.327,162.466z"/>
	<g>
		
			<ellipse transform="matrix(0.231 -0.9729 0.9729 0.231 139.6115 643.6704)" style="fill:none;stroke:#263238;stroke-miterlimit:10;" cx="477.007" cy="233.514" rx="12.819" ry="12.819"/>
		<path style="fill:none;stroke:#263238;stroke-miterlimit:10;" d="M525.166,192.284c0,3.827-3.102,6.929-6.929,6.929
			c-3.827,0-6.93-3.102-6.93-6.929c0-3.827,3.102-6.93,6.93-6.93C522.064,185.354,525.166,188.456,525.166,192.284z"/>
		<path style="fill:none;stroke:#263238;stroke-miterlimit:10;" d="M468.345,194.016c0,2.488-2.017,4.504-4.504,4.504
			c-2.487,0-4.504-2.017-4.504-4.504c0-2.488,2.017-4.504,4.504-4.504C466.328,189.512,468.345,191.528,468.345,194.016z"/>
		<circle style="fill:none;stroke:#263238;stroke-miterlimit:10;" cx="517.544" cy="280.287" r="5.544"/>
		<circle style="fill:none;stroke:#263238;stroke-miterlimit:10;" cx="442.013" cy="258.113" r="4.851"/>
		<circle style="fill:none;stroke:#263238;stroke-miterlimit:10;" cx="475.499" cy="267.505" r="4.851"/>
		<path style="fill:none;stroke:#263238;stroke-miterlimit:10;" d="M451.333,227.769c-1.795,1.51-4.112,2.419-6.641,2.419
			c-5.702,0-10.324-4.622-10.324-10.324c0-5.702,4.622-10.324,10.324-10.324c5.702,0,10.324,4.622,10.324,10.324
			c0,1.586-0.358,3.089-0.997,4.432"/>
		<circle style="fill:none;stroke:#263238;stroke-miterlimit:10;" cx="522.689" cy="210.063" r="4.462"/>
		<line style="fill:none;stroke:#263238;stroke-miterlimit:10;" x1="465.347" y1="198.164" x2="472.292" y2="220.791"/>
		<line style="fill:none;stroke:#263238;stroke-miterlimit:10;" x1="505.378" y1="206.053" x2="513.738" y2="197.268"/>
		<line style="fill:none;stroke:#263238;stroke-miterlimit:10;" x1="487.302" y1="225.048" x2="503.12" y2="208.426"/>
		<line style="fill:none;stroke:#263238;stroke-miterlimit:10;" x1="484.735" y1="243.471" x2="513.066" y2="276.128"/>
		<line style="fill:none;stroke:#263238;stroke-miterlimit:10;" x1="446.08" y1="254.844" x2="467.139" y2="241.85"/>
	</g>
	<g id="p0fIIB_1_">
		<g>
			<path style="fill:none;stroke:#263238;stroke-miterlimit:10;" d="M239.889,241.322c-1.169-5.941-1.929-7.192-6.525-10.75
				c4.497-7.782,9.003-15.581,13.503-23.369c10.203,3.44,22.235,23.997,19.918,34.119
				C257.857,241.322,248.901,241.322,239.889,241.322z"/>
			<path style="fill:none;stroke:#263238;stroke-miterlimit:10;" d="M221.022,251.92c4.71,2.179,6.187,2.222,12.321,0.401
				c4.499,7.784,9.009,15.587,13.518,23.388c-11.535,7.083-28.144,6.884-39.394-0.347
				C211.976,267.565,216.487,259.763,221.022,251.92z"/>
			<path style="fill:none;stroke:#263238;stroke-miterlimit:10;" d="M207.452,207.507c4.498,7.783,9.004,15.579,13.362,23.119
				c-1.421,1.696-2.983,3.121-3.975,4.869c-0.974,1.716-1.37,3.76-2.081,5.84c-8.742,0-17.731,0-26.715,0
				C186.738,229.755,197.003,211.816,207.452,207.507z"/>
			<path style="fill:none;stroke:#263238;stroke-miterlimit:10;" d="M227.378,249.422c-4.223-0.01-7.926-3.41-7.77-8.477
				c0.124-4.009,3.651-7.362,7.879-7.332c4.718,0.033,7.867,3.647,7.874,7.901C235.37,246.274,231.43,249.548,227.378,249.422z"/>
		</g>
	</g>
</g>
<g id="Lamps">
	<g>
		<path style="fill:#FFFFFF;stroke:#263238;stroke-linecap:round;stroke-linejoin:round;stroke-miterlimit:10;" d="M121.191,92.559
			c3.985,8.446,15.676,14.563,29.483,14.563c13.807,0,25.497-6.118,29.483-14.563H121.191z"/>
		<polygon style="fill:#263238;stroke:#263238;stroke-linecap:round;stroke-linejoin:round;stroke-miterlimit:10;" points="
			150.522,74.986 100.761,95.803 200.282,95.803 		"/>
		
			<rect x="136.414" y="67.074" style="fill:#263238;stroke:#263238;stroke-linecap:round;stroke-linejoin:round;stroke-miterlimit:10;" width="28.216" height="16.384"/>
		
			<line style="fill:none;stroke:#263238;stroke-width:4;stroke-linecap:round;stroke-linejoin:round;stroke-miterlimit:10;" x1="150.522" y1="67.984" x2="150.522" y2="27.025"/>
	</g>
	<g>
		<path style="fill:#FFFFFF;stroke:#263238;stroke-linecap:round;stroke-linejoin:round;stroke-miterlimit:10;" d="M538.116,92.559
			c3.985,8.446,15.676,14.563,29.483,14.563c13.807,0,25.497-6.118,29.483-14.563H538.116z"/>
		<polygon style="fill:#263238;stroke:#263238;stroke-linecap:round;stroke-linejoin:round;stroke-miterlimit:10;" points="
			567.447,74.986 517.687,95.803 617.207,95.803 		"/>
		
			<rect x="553.339" y="67.074" style="fill:#263238;stroke:#263238;stroke-linecap:round;stroke-linejoin:round;stroke-miterlimit:10;" width="28.216" height="16.384"/>
		
			<line style="fill:none;stroke:#263238;stroke-width:4;stroke-linecap:round;stroke-linejoin:round;stroke-miterlimit:10;" x1="567.447" y1="67.984" x2="567.447" y2="27.025"/>
	</g>
</g>
</svg>
